<?xml version="1.0" encoding="UTF-8"?>
<svg version="1.1" xmlns="http://www.w3.org/2000/svg" width="400" height="400">
<path d="M0 0 C132 0 264 0 400 0 C400 132 400 264 400 400 C268 400 136 400 0 400 C0 268 0 136 0 0 Z " fill="#FEFEFE" transform="translate(0,0)"/>
<path d="M0 0 C1.99064818 1.74380781 3.45370067 3.53772122 4.953125 5.7109375 C4.30988281 5.63875 3.66664063 5.5665625 3.00390625 5.4921875 C-25.95315439 2.51799582 -50.42715796 10.77652592 -73.23046875 28.41796875 C-101.2212798 51.2066041 -117.69518995 78.96529431 -123.046875 114.7109375 C-124.74230492 141.20875323 -121.09538734 168.01105078 -103.046875 188.7109375 C-97.85458329 194.4134765 -92.58836872 199.57694367 -86.046875 203.7109375 C-88.96692588 205.17096294 -90.93804039 204.01463012 -93.91137695 203.07324219 C-121.06851888 193.96805368 -143.22141867 175.82202993 -156.125 149.97265625 C-169.24133902 121.99692094 -171.23435646 89.90155507 -160.79736328 60.73583984 C-154.85413412 44.70033474 -147.04684277 31.05685029 -135.046875 18.7109375 C-134.42425781 18.02644531 -133.80164063 17.34195313 -133.16015625 16.63671875 C-118.82927327 1.34443481 -96.47379159 -9.32677924 -76.046875 -13.2890625 C-75.16644531 -13.47339844 -74.28601563 -13.65773438 -73.37890625 -13.84765625 C-48.63280488 -18.39541886 -20.73074538 -15.01921349 0 0 Z " fill="#3053A3" transform="translate(233.046875,120.2890625)"/>
<path d="M0 0 C1.14805618 0.00888245 2.29611237 0.01776489 3.47895813 0.0269165 C4.78008041 0.02721863 6.0812027 0.02752075 7.42175293 0.02783203 C8.8422761 0.04825875 10.26279304 0.06912273 11.68330383 0.09039307 C13.13632428 0.09785437 14.5893548 0.10354783 16.04238892 0.10754395 C19.86491223 0.12280929 23.68682661 0.16209786 27.5091095 0.20635986 C31.41018943 0.24729374 35.31136787 0.26555087 39.21260071 0.28570557 C46.86587297 0.3285921 54.51864367 0.39685322 62.17158508 0.48101807 C60.64546264 5.25345149 58.70647105 9.50834458 56.23408508 13.85601807 C55.84221008 14.54719727 55.45033508 15.23837646 55.04658508 15.95050049 C45.8739499 31.84626032 34.65274779 46.0549786 22.17158508 59.48101807 C21.19705383 60.5541626 21.19705383 60.5541626 20.20283508 61.64898682 C-0.42574107 83.4280028 -31.10831153 100.51822182 -61.50810242 101.71929932 C-83.96747958 102.20538626 -103.76629455 97.14455121 -120.42118835 81.27593994 C-136.83024367 64.6054274 -143.21878432 42.22777441 -143.07841492 19.35601807 C-143.02754956 15.72961716 -142.94840954 12.10577883 -142.82841492 8.48101807 C-140.44878635 10.86064663 -139.82756127 12.83822772 -138.64091492 15.98101807 C-135.25219237 24.30787906 -130.5358894 31.44429103 -123.82841492 37.48101807 C-123.36435242 37.94894775 -122.90028992 38.41687744 -122.42216492 38.89898682 C-112.10493243 48.73575995 -98.38123476 51.97916499 -84.56278992 51.72711182 C-62.62053786 50.28112659 -42.29389843 40.76564283 -25.82841492 26.48101807 C-25.00857117 25.80554932 -24.18872742 25.13008057 -23.34403992 24.43414307 C-16.03515007 18.21477718 -9.39769825 10.68696114 -4.58956909 2.32702637 C-2.82841492 0.48101807 -2.82841492 0.48101807 0 0 Z " fill="#2D4D9D" transform="translate(260.8284149169922,225.51898193359375)"/>
<path d="M0 0 C1.13501953 0.65162109 1.13501953 0.65162109 2.29296875 1.31640625 C9.96228821 6.3669337 13.96552212 14.22058647 16 23 C17.54823752 35.81429596 15.48679034 46.44753777 10 58 C9.52046875 59.01835937 9.0409375 60.03671875 8.546875 61.0859375 C-1.54427321 80.88011284 -20.06302551 97.48699596 -41 105 C-54.24797132 109.23935082 -68.8059881 112.03025286 -82 106 C-92.8485475 100.16934744 -97.98736563 92.72534987 -101.58203125 81.12109375 C-104.63676304 65.61904366 -99.4138587 49.94586896 -91 37 C-77.64187585 17.34814428 -58.16326214 0.55602524 -34.359375 -4.55859375 C-22.22439285 -6.15307396 -10.8423059 -6.35699739 0 0 Z " fill="#6DA755" transform="translate(238,152)"/>
<path d="M0 0 C2.99730065 2.65735783 5.84460678 5.44830422 8.69140625 8.265625 C9.4184375 8.93207031 10.14546875 9.59851563 10.89453125 10.28515625 C25.67850718 24.10875579 33.80378033 43.01314729 38.69140625 62.265625 C38.92601562 63.17441406 39.160625 64.08320313 39.40234375 65.01953125 C41.5936539 74.14999019 41.69140625 82.7928922 41.69140625 92.265625 C19.91140625 92.265625 -1.86859375 92.265625 -24.30859375 92.265625 C-25.29859375 80.880625 -25.29859375 80.880625 -26.30859375 69.265625 C-29.24320816 53.23811554 -34.3934602 38.6361097 -45.30859375 26.265625 C-45.9325 25.44449219 -46.55640625 24.62335938 -47.19921875 23.77734375 C-58.81305713 9.94827324 -78.9680897 3.3944415 -96.30859375 1.265625 C-100.83378738 0.9811612 -105.33782804 0.93203272 -109.87109375 0.953125 C-111.09183594 0.95658936 -112.31257813 0.96005371 -113.5703125 0.96362305 C-127.14103341 1.12522176 -140.02233885 3.03494886 -153.05859375 6.8125 C-155.30859375 7.265625 -155.30859375 7.265625 -158.30859375 6.265625 C-113.69834959 -27.27797924 -45.81005048 -38.9651846 0 0 Z " fill="#2D4FA0" transform="translate(293.30859375,97.734375)"/>
</svg>
